<?xml version="1.0" standalone="no"?>
<!DOCTYPE svg PUBLIC "-//W3C//DTD SVG 20010904//EN"
 "http://www.w3.org/TR/2001/REC-SVG-20010904/DTD/svg10.dtd">
<svg version="1.0" xmlns="http://www.w3.org/2000/svg"
 width="512.000000pt" height="512.000000pt" viewBox="0 0 512.000000 512.000000"
 preserveAspectRatio="xMidYMid meet">
<g transform="translate(0.000000,512.000000) scale(0.100000,-0.100000)"
fill="#000000" stroke="none">
<path d="M1152 3514 c-218 -48 -362 -204 -399 -436 -4 -24 -7 -302 -7 -618 0
-630 2 -647 62 -770 37 -76 124 -160 206 -199 123 -58 151 -60 734 -61 471 0
532 1 546 16 14 13 16 47 16 228 0 163 -3 216 -13 224 -9 8 -157 12 -458 14
-405 3 -446 5 -470 21 -44 30 -52 61 -55 220 l-4 147 413 0 c338 0 417 3 432
14 18 13 19 29 19 221 0 169 -3 208 -15 216 -8 5 -197 9 -431 9 l-417 0 3 93
c3 106 19 147 69 174 29 16 75 19 447 23 411 5 415 5 425 26 12 25 13 422 1
442 -11 19 -1018 15 -1104 -4z"/>
<path d="M2462 3518 c-7 -7 -12 -16 -12 -22 0 -13 616 -1870 637 -1921 26 -63
62 -106 107 -126 36 -16 67 -19 241 -19 110 0 216 5 235 10 75 21 111 76 174
265 20 61 162 488 315 949 218 653 277 844 270 858 -10 18 -26 19 -289 16
-187 -2 -283 -7 -290 -14 -10 -10 -27 -63 -80 -259 -11 -38 -49 -176 -85 -305
-36 -129 -102 -380 -146 -557 -49 -193 -86 -323 -93 -323 -7 0 -26 56 -45 128
-103 394 -211 779 -357 1275 -3 10 -15 27 -27 37 -20 19 -36 20 -282 20 -190
0 -264 -3 -273 -12z"/>
</g>
</svg>
